<svg xmlns="http://www.w3.org/2000/svg" xmlns:xlink="http://www.w3.org/1999/xlink" width="500" zoomAndPan="magnify" viewBox="0 0 375 374.999991" height="500" preserveAspectRatio="xMidYMid meet" version="1.0"><defs><g/><clipPath id="e9e85bff88"><path d="M 46.273438 119.894531 L 292.273438 119.894531 L 292.273438 245 L 46.273438 245 Z M 46.273438 119.894531 " clip-rule="nonzero"/></clipPath></defs><g clip-path="url(#e9e85bff88)"><path fill="#ffffff" d="M 263.78125 155.148438 L 257.570312 155.148438 L 257.570312 161.363281 L 263.78125 161.363281 Z M 248.464844 155.148438 L 242.253906 155.148438 L 242.253906 161.363281 L 248.464844 161.363281 Z M 233.148438 155.148438 L 226.9375 155.148438 L 226.9375 161.363281 L 233.148438 161.363281 Z M 246.707031 182.214844 L 277.21875 182.214844 L 277.21875 135.019531 L 206.75 135.019531 L 206.75 208.019531 L 206.996094 208.019531 C 208.378906 205.515625 209.878906 203.007812 211.382812 200.628906 L 216.722656 192.695312 L 223.582031 182.511719 L 223.664062 182.394531 L 223.664062 182.214844 Z M 234.121094 196.457031 L 224.789062 207.019531 L 249.839844 243.46875 L 226.417969 243.46875 L 211.636719 218.289062 L 206.75 224.300781 L 206.75 243.46875 L 187.707031 243.46875 L 187.707031 154.527344 L 187.753906 154.527344 L 187.753906 119.894531 L 292.261719 119.894531 L 292.261719 196.457031 Z M 160.816406 243.472656 L 179.859375 243.472656 L 179.859375 159.042969 L 160.816406 159.042969 Z M 133.894531 214.535156 C 123.875 214.410156 116.109375 216.789062 116.109375 224.179688 C 116.109375 229.0625 119.363281 231.445312 123.625 231.445312 C 128.382812 231.445312 132.265625 228.3125 133.519531 224.429688 C 133.769531 223.425781 133.894531 222.300781 133.894531 221.171875 Z M 152.4375 228.5625 C 152.4375 234.449219 152.6875 240.085938 153.3125 243.472656 L 136.152344 243.472656 L 135.023438 237.332031 L 134.648438 237.332031 C 130.640625 242.21875 124.375 244.847656 117.109375 244.847656 C 104.707031 244.847656 97.316406 235.832031 97.316406 226.058594 C 97.316406 210.148438 111.597656 202.507812 133.269531 202.632812 L 133.269531 201.757812 C 133.269531 198.5 131.515625 193.863281 122.121094 193.863281 C 115.855469 193.863281 109.21875 195.996094 105.210938 198.5 L 101.703125 186.222656 C 105.960938 183.84375 114.355469 180.835938 125.503906 180.835938 C 145.921875 180.835938 152.4375 192.863281 152.4375 207.269531 Z M 111.257812 159.042969 L 111.257812 175.074219 L 88.582031 175.074219 L 88.582031 243.472656 L 69.421875 243.472656 L 69.421875 165.070312 L 63.464844 175.074219 L 46.371094 175.074219 L 46.371094 159.042969 L 111.257812 159.042969 " fill-opacity="1" fill-rule="nonzero"/></g><g fill="#ffffff" fill-opacity="1"><g transform="translate(262.025027, 218.027939)"><g><path d="M 9.625 -7.5625 L 7.609375 0 L 6.71875 0 L 5.21875 -5.09375 C 5.175781 -5.238281 5.132812 -5.382812 5.09375 -5.53125 C 5.050781 -5.675781 5.007812 -5.8125 4.96875 -5.9375 C 4.9375 -6.070312 4.910156 -6.191406 4.890625 -6.296875 C 4.867188 -6.398438 4.851562 -6.476562 4.84375 -6.53125 C 4.84375 -6.476562 4.832031 -6.398438 4.8125 -6.296875 C 4.789062 -6.203125 4.765625 -6.085938 4.734375 -5.953125 C 4.703125 -5.816406 4.664062 -5.675781 4.625 -5.53125 C 4.59375 -5.382812 4.550781 -5.234375 4.5 -5.078125 L 3.046875 0 L 2.15625 0 L 0.15625 -7.5625 L 1.078125 -7.5625 L 2.28125 -2.8125 C 2.320312 -2.65625 2.359375 -2.5 2.390625 -2.34375 C 2.429688 -2.195312 2.46875 -2.050781 2.5 -1.90625 C 2.53125 -1.757812 2.554688 -1.613281 2.578125 -1.46875 C 2.609375 -1.332031 2.632812 -1.203125 2.65625 -1.078125 C 2.664062 -1.210938 2.679688 -1.351562 2.703125 -1.5 C 2.734375 -1.644531 2.765625 -1.789062 2.796875 -1.9375 C 2.835938 -2.09375 2.875 -2.25 2.90625 -2.40625 C 2.945312 -2.5625 2.992188 -2.71875 3.046875 -2.875 L 4.40625 -7.5625 L 5.3125 -7.5625 L 6.71875 -2.828125 C 6.769531 -2.671875 6.816406 -2.507812 6.859375 -2.34375 C 6.898438 -2.1875 6.9375 -2.035156 6.96875 -1.890625 C 7 -1.742188 7.023438 -1.597656 7.046875 -1.453125 C 7.078125 -1.316406 7.101562 -1.191406 7.125 -1.078125 C 7.15625 -1.242188 7.1875 -1.421875 7.21875 -1.609375 C 7.25 -1.796875 7.285156 -1.988281 7.328125 -2.1875 C 7.378906 -2.394531 7.429688 -2.609375 7.484375 -2.828125 L 8.703125 -7.5625 Z M 9.625 -7.5625 "/></g></g></g><g fill="#ffffff" fill-opacity="1"><g transform="translate(271.805462, 218.027939)"><g><path d="M 6.765625 0 L 5.890625 0 L 5.890625 -3.5625 L 1.90625 -3.5625 L 1.90625 0 L 1.03125 0 L 1.03125 -7.5625 L 1.90625 -7.5625 L 1.90625 -4.34375 L 5.890625 -4.34375 L 5.890625 -7.5625 L 6.765625 -7.5625 Z M 6.765625 0 "/></g></g></g><g fill="#ffffff" fill-opacity="1"><g transform="translate(279.615325, 218.027939)"><g><path d="M 5.25 0 L 1.03125 0 L 1.03125 -7.5625 L 5.25 -7.5625 L 5.25 -6.78125 L 1.90625 -6.78125 L 1.90625 -4.34375 L 5.046875 -4.34375 L 5.046875 -3.578125 L 1.90625 -3.578125 L 1.90625 -0.78125 L 5.25 -0.78125 Z M 5.25 0 "/></g></g></g><g fill="#ffffff" fill-opacity="1"><g transform="translate(285.501169, 218.027939)"><g><path d="M 3.078125 -7.5625 C 3.703125 -7.5625 4.210938 -7.484375 4.609375 -7.328125 C 5.015625 -7.179688 5.316406 -6.945312 5.515625 -6.625 C 5.722656 -6.3125 5.828125 -5.914062 5.828125 -5.4375 C 5.828125 -5.03125 5.753906 -4.691406 5.609375 -4.421875 C 5.460938 -4.160156 5.269531 -3.945312 5.03125 -3.78125 C 4.800781 -3.613281 4.550781 -3.488281 4.28125 -3.40625 L 6.359375 0 L 5.34375 0 L 3.484375 -3.15625 L 1.90625 -3.15625 L 1.90625 0 L 1.03125 0 L 1.03125 -7.5625 Z M 3.03125 -6.796875 L 1.90625 -6.796875 L 1.90625 -3.90625 L 3.109375 -3.90625 C 3.734375 -3.90625 4.191406 -4.03125 4.484375 -4.28125 C 4.773438 -4.53125 4.921875 -4.898438 4.921875 -5.390625 C 4.921875 -5.898438 4.765625 -6.257812 4.453125 -6.46875 C 4.140625 -6.6875 3.664062 -6.796875 3.03125 -6.796875 Z M 3.03125 -6.796875 "/></g></g></g><g fill="#ffffff" fill-opacity="1"><g transform="translate(292.038696, 218.027939)"><g><path d="M 5.25 0 L 1.03125 0 L 1.03125 -7.5625 L 5.25 -7.5625 L 5.25 -6.78125 L 1.90625 -6.78125 L 1.90625 -4.34375 L 5.046875 -4.34375 L 5.046875 -3.578125 L 1.90625 -3.578125 L 1.90625 -0.78125 L 5.25 -0.78125 Z M 5.25 0 "/></g></g></g><g fill="#ffffff" fill-opacity="1"><g transform="translate(262.025027, 230.22575)"><g><path d="M 4.265625 -6.890625 C 3.847656 -6.890625 3.472656 -6.816406 3.140625 -6.671875 C 2.804688 -6.535156 2.519531 -6.332031 2.28125 -6.0625 C 2.050781 -5.789062 1.875 -5.460938 1.75 -5.078125 C 1.632812 -4.691406 1.578125 -4.257812 1.578125 -3.78125 C 1.578125 -3.144531 1.675781 -2.59375 1.875 -2.125 C 2.070312 -1.664062 2.367188 -1.304688 2.765625 -1.046875 C 3.160156 -0.796875 3.648438 -0.671875 4.234375 -0.671875 C 4.578125 -0.671875 4.894531 -0.695312 5.1875 -0.75 C 5.488281 -0.8125 5.78125 -0.882812 6.0625 -0.96875 L 6.0625 -0.203125 C 5.789062 -0.0976562 5.503906 -0.0195312 5.203125 0.03125 C 4.898438 0.0820312 4.539062 0.109375 4.125 0.109375 C 3.351562 0.109375 2.707031 -0.0507812 2.1875 -0.375 C 1.675781 -0.695312 1.289062 -1.148438 1.03125 -1.734375 C 0.769531 -2.316406 0.640625 -3.003906 0.640625 -3.796875 C 0.640625 -4.367188 0.71875 -4.890625 0.875 -5.359375 C 1.039062 -5.835938 1.273438 -6.25 1.578125 -6.59375 C 1.890625 -6.9375 2.269531 -7.203125 2.71875 -7.390625 C 3.175781 -7.578125 3.695312 -7.671875 4.28125 -7.671875 C 4.664062 -7.671875 5.035156 -7.628906 5.390625 -7.546875 C 5.742188 -7.472656 6.0625 -7.367188 6.34375 -7.234375 L 6 -6.484375 C 5.757812 -6.597656 5.492188 -6.691406 5.203125 -6.765625 C 4.910156 -6.847656 4.597656 -6.890625 4.265625 -6.890625 Z M 4.265625 -6.890625 "/></g></g></g><g fill="#ffffff" fill-opacity="1"><g transform="translate(268.697029, 230.22575)"><g><path d="M 7.59375 -3.796875 C 7.59375 -3.210938 7.519531 -2.679688 7.375 -2.203125 C 7.226562 -1.722656 7.007812 -1.3125 6.71875 -0.96875 C 6.425781 -0.625 6.0625 -0.359375 5.625 -0.171875 C 5.195312 0.015625 4.695312 0.109375 4.125 0.109375 C 3.539062 0.109375 3.03125 0.015625 2.59375 -0.171875 C 2.15625 -0.359375 1.789062 -0.625 1.5 -0.96875 C 1.21875 -1.3125 1.003906 -1.722656 0.859375 -2.203125 C 0.710938 -2.679688 0.640625 -3.210938 0.640625 -3.796875 C 0.640625 -4.566406 0.765625 -5.242188 1.015625 -5.828125 C 1.273438 -6.410156 1.664062 -6.863281 2.1875 -7.1875 C 2.707031 -7.519531 3.359375 -7.6875 4.140625 -7.6875 C 4.890625 -7.6875 5.519531 -7.523438 6.03125 -7.203125 C 6.539062 -6.878906 6.925781 -6.425781 7.1875 -5.84375 C 7.457031 -5.257812 7.59375 -4.578125 7.59375 -3.796875 Z M 1.578125 -3.796875 C 1.578125 -3.148438 1.664062 -2.59375 1.84375 -2.125 C 2.03125 -1.65625 2.3125 -1.289062 2.6875 -1.03125 C 3.0625 -0.78125 3.539062 -0.65625 4.125 -0.65625 C 4.707031 -0.65625 5.1875 -0.78125 5.5625 -1.03125 C 5.9375 -1.289062 6.210938 -1.65625 6.390625 -2.125 C 6.578125 -2.59375 6.671875 -3.148438 6.671875 -3.796875 C 6.671875 -4.765625 6.460938 -5.523438 6.046875 -6.078125 C 5.640625 -6.628906 5.003906 -6.90625 4.140625 -6.90625 C 3.554688 -6.90625 3.070312 -6.78125 2.6875 -6.53125 C 2.3125 -6.28125 2.03125 -5.921875 1.84375 -5.453125 C 1.664062 -4.992188 1.578125 -4.441406 1.578125 -3.796875 Z M 1.578125 -3.796875 "/></g></g></g><g fill="#ffffff" fill-opacity="1"><g transform="translate(276.93618, 230.22575)"><g><path d="M 6.953125 0 L 5.9375 0 L 1.8125 -6.359375 L 1.765625 -6.359375 C 1.773438 -6.179688 1.785156 -5.984375 1.796875 -5.765625 C 1.816406 -5.554688 1.832031 -5.328125 1.84375 -5.078125 C 1.851562 -4.835938 1.859375 -4.59375 1.859375 -4.34375 L 1.859375 0 L 1.03125 0 L 1.03125 -7.5625 L 2.046875 -7.5625 L 6.15625 -1.234375 L 6.1875 -1.234375 C 6.175781 -1.347656 6.164062 -1.515625 6.15625 -1.734375 C 6.144531 -1.960938 6.132812 -2.203125 6.125 -2.453125 C 6.125 -2.710938 6.125 -2.957031 6.125 -3.1875 L 6.125 -7.5625 L 6.953125 -7.5625 Z M 6.953125 0 "/></g></g></g><g fill="#ffffff" fill-opacity="1"><g transform="translate(284.91155, 230.22575)"><g><path d="M 6.3125 -7.5625 L 3.59375 0 L 2.71875 0 L 0 -7.5625 L 0.921875 -7.5625 L 2.6875 -2.578125 C 2.757812 -2.378906 2.820312 -2.1875 2.875 -2 C 2.9375 -1.820312 2.988281 -1.644531 3.03125 -1.46875 C 3.082031 -1.300781 3.125 -1.140625 3.15625 -0.984375 C 3.1875 -1.140625 3.222656 -1.300781 3.265625 -1.46875 C 3.316406 -1.644531 3.367188 -1.828125 3.421875 -2.015625 C 3.484375 -2.203125 3.550781 -2.394531 3.625 -2.59375 L 5.390625 -7.5625 Z M 6.3125 -7.5625 "/></g></g></g><g fill="#ffffff" fill-opacity="1"><g transform="translate(291.226681, 230.22575)"><g><path d="M 5.25 0 L 1.03125 0 L 1.03125 -7.5625 L 5.25 -7.5625 L 5.25 -6.78125 L 1.90625 -6.78125 L 1.90625 -4.34375 L 5.046875 -4.34375 L 5.046875 -3.578125 L 1.90625 -3.578125 L 1.90625 -0.78125 L 5.25 -0.78125 Z M 5.25 0 "/></g></g></g><g fill="#ffffff" fill-opacity="1"><g transform="translate(297.112525, 230.22575)"><g><path d="M 3.078125 -7.5625 C 3.703125 -7.5625 4.210938 -7.484375 4.609375 -7.328125 C 5.015625 -7.179688 5.316406 -6.945312 5.515625 -6.625 C 5.722656 -6.3125 5.828125 -5.914062 5.828125 -5.4375 C 5.828125 -5.03125 5.753906 -4.691406 5.609375 -4.421875 C 5.460938 -4.160156 5.269531 -3.945312 5.03125 -3.78125 C 4.800781 -3.613281 4.550781 -3.488281 4.28125 -3.40625 L 6.359375 0 L 5.34375 0 L 3.484375 -3.15625 L 1.90625 -3.15625 L 1.90625 0 L 1.03125 0 L 1.03125 -7.5625 Z M 3.03125 -6.796875 L 1.90625 -6.796875 L 1.90625 -3.90625 L 3.109375 -3.90625 C 3.734375 -3.90625 4.191406 -4.03125 4.484375 -4.28125 C 4.773438 -4.53125 4.921875 -4.898438 4.921875 -5.390625 C 4.921875 -5.898438 4.765625 -6.257812 4.453125 -6.46875 C 4.140625 -6.6875 3.664062 -6.796875 3.03125 -6.796875 Z M 3.03125 -6.796875 "/></g></g></g><g fill="#ffffff" fill-opacity="1"><g transform="translate(303.650052, 230.22575)"><g><path d="M 5.296875 -2.015625 C 5.296875 -1.566406 5.1875 -1.179688 4.96875 -0.859375 C 4.75 -0.546875 4.4375 -0.304688 4.03125 -0.140625 C 3.632812 0.0234375 3.164062 0.109375 2.625 0.109375 C 2.332031 0.109375 2.054688 0.09375 1.796875 0.0625 C 1.546875 0.03125 1.3125 -0.0078125 1.09375 -0.0625 C 0.882812 -0.113281 0.703125 -0.175781 0.546875 -0.25 L 0.546875 -1.09375 C 0.804688 -0.988281 1.117188 -0.890625 1.484375 -0.796875 C 1.859375 -0.703125 2.25 -0.65625 2.65625 -0.65625 C 3.039062 -0.65625 3.363281 -0.707031 3.625 -0.8125 C 3.882812 -0.914062 4.082031 -1.0625 4.21875 -1.25 C 4.351562 -1.4375 4.421875 -1.664062 4.421875 -1.9375 C 4.421875 -2.195312 4.363281 -2.410156 4.25 -2.578125 C 4.132812 -2.753906 3.945312 -2.914062 3.6875 -3.0625 C 3.425781 -3.207031 3.066406 -3.359375 2.609375 -3.515625 C 2.285156 -3.628906 2 -3.753906 1.75 -3.890625 C 1.507812 -4.035156 1.304688 -4.191406 1.140625 -4.359375 C 0.972656 -4.535156 0.847656 -4.734375 0.765625 -4.953125 C 0.679688 -5.179688 0.640625 -5.441406 0.640625 -5.734375 C 0.640625 -6.140625 0.738281 -6.484375 0.9375 -6.765625 C 1.144531 -7.054688 1.429688 -7.28125 1.796875 -7.4375 C 2.160156 -7.59375 2.582031 -7.671875 3.0625 -7.671875 C 3.457031 -7.671875 3.828125 -7.628906 4.171875 -7.546875 C 4.515625 -7.472656 4.832031 -7.375 5.125 -7.25 L 4.84375 -6.5 C 4.570312 -6.613281 4.28125 -6.707031 3.96875 -6.78125 C 3.664062 -6.851562 3.351562 -6.890625 3.03125 -6.890625 C 2.707031 -6.890625 2.4375 -6.84375 2.21875 -6.75 C 2 -6.65625 1.828125 -6.519531 1.703125 -6.34375 C 1.585938 -6.175781 1.53125 -5.972656 1.53125 -5.734375 C 1.53125 -5.472656 1.585938 -5.253906 1.703125 -5.078125 C 1.816406 -4.898438 1.992188 -4.742188 2.234375 -4.609375 C 2.484375 -4.472656 2.8125 -4.328125 3.21875 -4.171875 C 3.664062 -4.015625 4.039062 -3.84375 4.34375 -3.65625 C 4.65625 -3.476562 4.890625 -3.257812 5.046875 -3 C 5.210938 -2.738281 5.296875 -2.410156 5.296875 -2.015625 Z M 5.296875 -2.015625 "/></g></g></g><g fill="#ffffff" fill-opacity="1"><g transform="translate(309.458318, 230.22575)"><g><path d="M 5.78125 0 L 4.84375 -2.40625 L 1.8125 -2.40625 L 0.890625 0 L 0 0 L 2.953125 -7.59375 L 3.75 -7.59375 L 6.6875 0 Z M 4.578125 -3.1875 L 3.703125 -5.5625 C 3.679688 -5.625 3.644531 -5.722656 3.59375 -5.859375 C 3.550781 -6.003906 3.503906 -6.148438 3.453125 -6.296875 C 3.410156 -6.453125 3.375 -6.578125 3.34375 -6.671875 C 3.300781 -6.535156 3.257812 -6.394531 3.21875 -6.25 C 3.1875 -6.113281 3.148438 -5.984375 3.109375 -5.859375 C 3.066406 -5.742188 3.035156 -5.644531 3.015625 -5.5625 L 2.109375 -3.1875 Z M 4.578125 -3.1875 "/></g></g></g><g fill="#ffffff" fill-opacity="1"><g transform="translate(316.156184, 230.22575)"><g><path d="M 3.359375 0 L 2.46875 0 L 2.46875 -6.78125 L 0.09375 -6.78125 L 0.09375 -7.5625 L 5.71875 -7.5625 L 5.71875 -6.78125 L 3.359375 -6.78125 Z M 3.359375 0 "/></g></g></g><g fill="#ffffff" fill-opacity="1"><g transform="translate(321.990307, 230.22575)"><g><path d="M 1.03125 0 L 1.03125 -7.5625 L 1.90625 -7.5625 L 1.90625 0 Z M 1.03125 0 "/></g></g></g><g fill="#ffffff" fill-opacity="1"><g transform="translate(324.948745, 230.22575)"><g><path d="M 7.59375 -3.796875 C 7.59375 -3.210938 7.519531 -2.679688 7.375 -2.203125 C 7.226562 -1.722656 7.007812 -1.3125 6.71875 -0.96875 C 6.425781 -0.625 6.0625 -0.359375 5.625 -0.171875 C 5.195312 0.015625 4.695312 0.109375 4.125 0.109375 C 3.539062 0.109375 3.03125 0.015625 2.59375 -0.171875 C 2.15625 -0.359375 1.789062 -0.625 1.5 -0.96875 C 1.21875 -1.3125 1.003906 -1.722656 0.859375 -2.203125 C 0.710938 -2.679688 0.640625 -3.210938 0.640625 -3.796875 C 0.640625 -4.566406 0.765625 -5.242188 1.015625 -5.828125 C 1.273438 -6.410156 1.664062 -6.863281 2.1875 -7.1875 C 2.707031 -7.519531 3.359375 -7.6875 4.140625 -7.6875 C 4.890625 -7.6875 5.519531 -7.523438 6.03125 -7.203125 C 6.539062 -6.878906 6.925781 -6.425781 7.1875 -5.84375 C 7.457031 -5.257812 7.59375 -4.578125 7.59375 -3.796875 Z M 1.578125 -3.796875 C 1.578125 -3.148438 1.664062 -2.59375 1.84375 -2.125 C 2.03125 -1.65625 2.3125 -1.289062 2.6875 -1.03125 C 3.0625 -0.78125 3.539062 -0.65625 4.125 -0.65625 C 4.707031 -0.65625 5.1875 -0.78125 5.5625 -1.03125 C 5.9375 -1.289062 6.210938 -1.65625 6.390625 -2.125 C 6.578125 -2.59375 6.671875 -3.148438 6.671875 -3.796875 C 6.671875 -4.765625 6.460938 -5.523438 6.046875 -6.078125 C 5.640625 -6.628906 5.003906 -6.90625 4.140625 -6.90625 C 3.554688 -6.90625 3.070312 -6.78125 2.6875 -6.53125 C 2.3125 -6.28125 2.03125 -5.921875 1.84375 -5.453125 C 1.664062 -4.992188 1.578125 -4.441406 1.578125 -3.796875 Z M 1.578125 -3.796875 "/></g></g></g><g fill="#ffffff" fill-opacity="1"><g transform="translate(333.187896, 230.22575)"><g><path d="M 6.953125 0 L 5.9375 0 L 1.8125 -6.359375 L 1.765625 -6.359375 C 1.773438 -6.179688 1.785156 -5.984375 1.796875 -5.765625 C 1.816406 -5.554688 1.832031 -5.328125 1.84375 -5.078125 C 1.851562 -4.835938 1.859375 -4.59375 1.859375 -4.34375 L 1.859375 0 L 1.03125 0 L 1.03125 -7.5625 L 2.046875 -7.5625 L 6.15625 -1.234375 L 6.1875 -1.234375 C 6.175781 -1.347656 6.164062 -1.515625 6.15625 -1.734375 C 6.144531 -1.960938 6.132812 -2.203125 6.125 -2.453125 C 6.125 -2.710938 6.125 -2.957031 6.125 -3.1875 L 6.125 -7.5625 L 6.953125 -7.5625 Z M 6.953125 0 "/></g></g></g><g fill="#ffffff" fill-opacity="1"><g transform="translate(341.163266, 230.22575)"><g><path d="M 5.296875 -2.015625 C 5.296875 -1.566406 5.1875 -1.179688 4.96875 -0.859375 C 4.75 -0.546875 4.4375 -0.304688 4.03125 -0.140625 C 3.632812 0.0234375 3.164062 0.109375 2.625 0.109375 C 2.332031 0.109375 2.054688 0.09375 1.796875 0.0625 C 1.546875 0.03125 1.3125 -0.0078125 1.09375 -0.0625 C 0.882812 -0.113281 0.703125 -0.175781 0.546875 -0.25 L 0.546875 -1.09375 C 0.804688 -0.988281 1.117188 -0.890625 1.484375 -0.796875 C 1.859375 -0.703125 2.25 -0.65625 2.65625 -0.65625 C 3.039062 -0.65625 3.363281 -0.707031 3.625 -0.8125 C 3.882812 -0.914062 4.082031 -1.0625 4.21875 -1.25 C 4.351562 -1.4375 4.421875 -1.664062 4.421875 -1.9375 C 4.421875 -2.195312 4.363281 -2.410156 4.25 -2.578125 C 4.132812 -2.753906 3.945312 -2.914062 3.6875 -3.0625 C 3.425781 -3.207031 3.066406 -3.359375 2.609375 -3.515625 C 2.285156 -3.628906 2 -3.753906 1.75 -3.890625 C 1.507812 -4.035156 1.304688 -4.191406 1.140625 -4.359375 C 0.972656 -4.535156 0.847656 -4.734375 0.765625 -4.953125 C 0.679688 -5.179688 0.640625 -5.441406 0.640625 -5.734375 C 0.640625 -6.140625 0.738281 -6.484375 0.9375 -6.765625 C 1.144531 -7.054688 1.429688 -7.28125 1.796875 -7.4375 C 2.160156 -7.59375 2.582031 -7.671875 3.0625 -7.671875 C 3.457031 -7.671875 3.828125 -7.628906 4.171875 -7.546875 C 4.515625 -7.472656 4.832031 -7.375 5.125 -7.25 L 4.84375 -6.5 C 4.570312 -6.613281 4.28125 -6.707031 3.96875 -6.78125 C 3.664062 -6.851562 3.351562 -6.890625 3.03125 -6.890625 C 2.707031 -6.890625 2.4375 -6.84375 2.21875 -6.75 C 2 -6.65625 1.828125 -6.519531 1.703125 -6.34375 C 1.585938 -6.175781 1.53125 -5.972656 1.53125 -5.734375 C 1.53125 -5.472656 1.585938 -5.253906 1.703125 -5.078125 C 1.816406 -4.898438 1.992188 -4.742188 2.234375 -4.609375 C 2.484375 -4.472656 2.8125 -4.328125 3.21875 -4.171875 C 3.664062 -4.015625 4.039062 -3.84375 4.34375 -3.65625 C 4.65625 -3.476562 4.890625 -3.257812 5.046875 -3 C 5.210938 -2.738281 5.296875 -2.410156 5.296875 -2.015625 Z M 5.296875 -2.015625 "/></g></g></g><g fill="#ffffff" fill-opacity="1"><g transform="translate(262.025027, 242.423561)"><g><path d="M 3.078125 -7.5625 C 3.703125 -7.5625 4.210938 -7.484375 4.609375 -7.328125 C 5.015625 -7.179688 5.316406 -6.945312 5.515625 -6.625 C 5.722656 -6.3125 5.828125 -5.914062 5.828125 -5.4375 C 5.828125 -5.03125 5.753906 -4.691406 5.609375 -4.421875 C 5.460938 -4.160156 5.269531 -3.945312 5.03125 -3.78125 C 4.800781 -3.613281 4.550781 -3.488281 4.28125 -3.40625 L 6.359375 0 L 5.34375 0 L 3.484375 -3.15625 L 1.90625 -3.15625 L 1.90625 0 L 1.03125 0 L 1.03125 -7.5625 Z M 3.03125 -6.796875 L 1.90625 -6.796875 L 1.90625 -3.90625 L 3.109375 -3.90625 C 3.734375 -3.90625 4.191406 -4.03125 4.484375 -4.28125 C 4.773438 -4.53125 4.921875 -4.898438 4.921875 -5.390625 C 4.921875 -5.898438 4.765625 -6.257812 4.453125 -6.46875 C 4.140625 -6.6875 3.664062 -6.796875 3.03125 -6.796875 Z M 3.03125 -6.796875 "/></g></g></g><g fill="#ffffff" fill-opacity="1"><g transform="translate(268.562555, 242.423561)"><g><path d="M 5.25 0 L 1.03125 0 L 1.03125 -7.5625 L 5.25 -7.5625 L 5.25 -6.78125 L 1.90625 -6.78125 L 1.90625 -4.34375 L 5.046875 -4.34375 L 5.046875 -3.578125 L 1.90625 -3.578125 L 1.90625 -0.78125 L 5.25 -0.78125 Z M 5.25 0 "/></g></g></g><g fill="#ffffff" fill-opacity="1"><g transform="translate(274.448399, 242.423561)"><g><path d="M 5.296875 -2.015625 C 5.296875 -1.566406 5.1875 -1.179688 4.96875 -0.859375 C 4.75 -0.546875 4.4375 -0.304688 4.03125 -0.140625 C 3.632812 0.0234375 3.164062 0.109375 2.625 0.109375 C 2.332031 0.109375 2.054688 0.09375 1.796875 0.0625 C 1.546875 0.03125 1.3125 -0.0078125 1.09375 -0.0625 C 0.882812 -0.113281 0.703125 -0.175781 0.546875 -0.25 L 0.546875 -1.09375 C 0.804688 -0.988281 1.117188 -0.890625 1.484375 -0.796875 C 1.859375 -0.703125 2.25 -0.65625 2.65625 -0.65625 C 3.039062 -0.65625 3.363281 -0.707031 3.625 -0.8125 C 3.882812 -0.914062 4.082031 -1.0625 4.21875 -1.25 C 4.351562 -1.4375 4.421875 -1.664062 4.421875 -1.9375 C 4.421875 -2.195312 4.363281 -2.410156 4.25 -2.578125 C 4.132812 -2.753906 3.945312 -2.914062 3.6875 -3.0625 C 3.425781 -3.207031 3.066406 -3.359375 2.609375 -3.515625 C 2.285156 -3.628906 2 -3.753906 1.75 -3.890625 C 1.507812 -4.035156 1.304688 -4.191406 1.140625 -4.359375 C 0.972656 -4.535156 0.847656 -4.734375 0.765625 -4.953125 C 0.679688 -5.179688 0.640625 -5.441406 0.640625 -5.734375 C 0.640625 -6.140625 0.738281 -6.484375 0.9375 -6.765625 C 1.144531 -7.054688 1.429688 -7.28125 1.796875 -7.4375 C 2.160156 -7.59375 2.582031 -7.671875 3.0625 -7.671875 C 3.457031 -7.671875 3.828125 -7.628906 4.171875 -7.546875 C 4.515625 -7.472656 4.832031 -7.375 5.125 -7.25 L 4.84375 -6.5 C 4.570312 -6.613281 4.28125 -6.707031 3.96875 -6.78125 C 3.664062 -6.851562 3.351562 -6.890625 3.03125 -6.890625 C 2.707031 -6.890625 2.4375 -6.84375 2.21875 -6.75 C 2 -6.65625 1.828125 -6.519531 1.703125 -6.34375 C 1.585938 -6.175781 1.53125 -5.972656 1.53125 -5.734375 C 1.53125 -5.472656 1.585938 -5.253906 1.703125 -5.078125 C 1.816406 -4.898438 1.992188 -4.742188 2.234375 -4.609375 C 2.484375 -4.472656 2.8125 -4.328125 3.21875 -4.171875 C 3.664062 -4.015625 4.039062 -3.84375 4.34375 -3.65625 C 4.65625 -3.476562 4.890625 -3.257812 5.046875 -3 C 5.210938 -2.738281 5.296875 -2.410156 5.296875 -2.015625 Z M 5.296875 -2.015625 "/></g></g></g><g fill="#ffffff" fill-opacity="1"><g transform="translate(280.256665, 242.423561)"><g><path d="M 7.59375 -3.796875 C 7.59375 -3.210938 7.519531 -2.679688 7.375 -2.203125 C 7.226562 -1.722656 7.007812 -1.3125 6.71875 -0.96875 C 6.425781 -0.625 6.0625 -0.359375 5.625 -0.171875 C 5.195312 0.015625 4.695312 0.109375 4.125 0.109375 C 3.539062 0.109375 3.03125 0.015625 2.59375 -0.171875 C 2.15625 -0.359375 1.789062 -0.625 1.5 -0.96875 C 1.21875 -1.3125 1.003906 -1.722656 0.859375 -2.203125 C 0.710938 -2.679688 0.640625 -3.210938 0.640625 -3.796875 C 0.640625 -4.566406 0.765625 -5.242188 1.015625 -5.828125 C 1.273438 -6.410156 1.664062 -6.863281 2.1875 -7.1875 C 2.707031 -7.519531 3.359375 -7.6875 4.140625 -7.6875 C 4.890625 -7.6875 5.519531 -7.523438 6.03125 -7.203125 C 6.539062 -6.878906 6.925781 -6.425781 7.1875 -5.84375 C 7.457031 -5.257812 7.59375 -4.578125 7.59375 -3.796875 Z M 1.578125 -3.796875 C 1.578125 -3.148438 1.664062 -2.59375 1.84375 -2.125 C 2.03125 -1.65625 2.3125 -1.289062 2.6875 -1.03125 C 3.0625 -0.78125 3.539062 -0.65625 4.125 -0.65625 C 4.707031 -0.65625 5.1875 -0.78125 5.5625 -1.03125 C 5.9375 -1.289062 6.210938 -1.65625 6.390625 -2.125 C 6.578125 -2.59375 6.671875 -3.148438 6.671875 -3.796875 C 6.671875 -4.765625 6.460938 -5.523438 6.046875 -6.078125 C 5.640625 -6.628906 5.003906 -6.90625 4.140625 -6.90625 C 3.554688 -6.90625 3.070312 -6.78125 2.6875 -6.53125 C 2.3125 -6.28125 2.03125 -5.921875 1.84375 -5.453125 C 1.664062 -4.992188 1.578125 -4.441406 1.578125 -3.796875 Z M 1.578125 -3.796875 "/></g></g></g><g fill="#ffffff" fill-opacity="1"><g transform="translate(288.495815, 242.423561)"><g><path d="M 6.953125 0 L 5.9375 0 L 1.8125 -6.359375 L 1.765625 -6.359375 C 1.773438 -6.179688 1.785156 -5.984375 1.796875 -5.765625 C 1.816406 -5.554688 1.832031 -5.328125 1.84375 -5.078125 C 1.851562 -4.835938 1.859375 -4.59375 1.859375 -4.34375 L 1.859375 0 L 1.03125 0 L 1.03125 -7.5625 L 2.046875 -7.5625 L 6.15625 -1.234375 L 6.1875 -1.234375 C 6.175781 -1.347656 6.164062 -1.515625 6.15625 -1.734375 C 6.144531 -1.960938 6.132812 -2.203125 6.125 -2.453125 C 6.125 -2.710938 6.125 -2.957031 6.125 -3.1875 L 6.125 -7.5625 L 6.953125 -7.5625 Z M 6.953125 0 "/></g></g></g><g fill="#ffffff" fill-opacity="1"><g transform="translate(296.471185, 242.423561)"><g><path d="M 5.78125 0 L 4.84375 -2.40625 L 1.8125 -2.40625 L 0.890625 0 L 0 0 L 2.953125 -7.59375 L 3.75 -7.59375 L 6.6875 0 Z M 4.578125 -3.1875 L 3.703125 -5.5625 C 3.679688 -5.625 3.644531 -5.722656 3.59375 -5.859375 C 3.550781 -6.003906 3.503906 -6.148438 3.453125 -6.296875 C 3.410156 -6.453125 3.375 -6.578125 3.34375 -6.671875 C 3.300781 -6.535156 3.257812 -6.394531 3.21875 -6.25 C 3.1875 -6.113281 3.148438 -5.984375 3.109375 -5.859375 C 3.066406 -5.742188 3.035156 -5.644531 3.015625 -5.5625 L 2.109375 -3.1875 Z M 4.578125 -3.1875 "/></g></g></g><g fill="#ffffff" fill-opacity="1"><g transform="translate(303.169051, 242.423561)"><g><path d="M 3.359375 0 L 2.46875 0 L 2.46875 -6.78125 L 0.09375 -6.78125 L 0.09375 -7.5625 L 5.71875 -7.5625 L 5.71875 -6.78125 L 3.359375 -6.78125 Z M 3.359375 0 "/></g></g></g><g fill="#ffffff" fill-opacity="1"><g transform="translate(309.003174, 242.423561)"><g><path d="M 5.25 0 L 1.03125 0 L 1.03125 -7.5625 L 5.25 -7.5625 L 5.25 -6.78125 L 1.90625 -6.78125 L 1.90625 -4.34375 L 5.046875 -4.34375 L 5.046875 -3.578125 L 1.90625 -3.578125 L 1.90625 -0.78125 L 5.25 -0.78125 Z M 5.25 0 "/></g></g></g></svg>